<svg width="1820" height="500" viewBox="0 0 1820 500" fill="none" xmlns="http://www.w3.org/2000/svg">
<path d="M61.25 200V65H0V47.5H78.75V200H61.25ZM101.25 65V200H83.75V47.5H162.5V65H101.25ZM0 42.5V25H162.5V42.5H0ZM279.607 200L217.607 132.5L225.357 115L304.357 200H279.607ZM312.607 78.75C312.607 87.4167 309.524 94.8333 303.357 101C297.357 107 290.024 110 281.357 110H227.357L235.107 92.5H281.357C285.191 92.5 288.441 91.1667 291.107 88.5C293.774 85.8333 295.107 82.5833 295.107 78.75C295.107 74.9167 293.774 71.6667 291.107 69C288.441 66.3333 285.191 65 281.357 65H212.607V200H195.107V47.5H281.357C290.024 47.5 297.357 50.5833 303.357 56.75C309.524 62.75 312.607 70.0833 312.607 78.75ZM310.107 200L232.107 115H281.357C291.357 115 299.857 111.5 306.857 104.5C314.024 97.3333 317.607 88.75 317.607 78.75C317.607 68.75 314.024 60.25 306.857 53.25C299.857 46.0833 291.357 42.5 281.357 42.5H190.107V200H172.607V25H281.357C296.191 25 308.857 30.25 319.357 40.75C329.857 51.25 335.107 63.9167 335.107 78.75C335.107 93.5833 329.857 106.25 319.357 116.75C308.857 127.25 296.191 132.5 281.357 132.5H272.357L335.107 200H310.107ZM345.215 200V25H362.715V200H345.215ZM367.715 200V25H385.215V200H367.715ZM517.764 112.5C517.764 99.5 513.097 88.3333 503.764 79C494.43 69.6667 483.264 65 470.264 65H435.264V160H470.264C483.43 160 494.597 155.417 503.764 146.25C513.097 136.917 517.764 125.667 517.764 112.5ZM535.264 112.5C535.264 130.5 528.93 145.833 516.264 158.5C503.597 171.167 488.264 177.5 470.264 177.5H417.764V47.5H470.264C488.264 47.5 503.597 53.8333 516.264 66.5C528.93 79.1667 535.264 94.5 535.264 112.5ZM540.264 112.5C540.264 93.1667 533.43 76.6667 519.764 63C506.097 49.3333 489.597 42.5 470.264 42.5H412.764V182.5H470.264C489.597 182.5 506.097 175.667 519.764 162C533.43 148.333 540.264 131.833 540.264 112.5ZM557.764 112.5C557.764 136.667 549.18 157.333 532.014 174.5C515.014 191.5 494.43 200 470.264 200H395.264V25H470.264C494.43 25 515.014 33.5833 532.014 50.75C549.18 67.75 557.764 88.3333 557.764 112.5ZM590.371 177.5V115H692.871V132.5H607.871V160H717.871V177.5H590.371ZM567.871 200V25H717.871V42.5H585.371V182.5H717.871V200H567.871ZM607.871 65V92.5H692.871V110H590.371V47.5H717.871V65H607.871ZM866.533 177.5L754.033 42.5H745.283V200H727.783V25H767.783L850.283 124.25V25H867.783V177.5H866.533ZM850.283 200L767.783 100.75V200H750.283V47.5H751.533L864.033 182.5H872.783V25H890.283V200H850.283ZM961.641 200V65H900.391V47.5H979.141V200H961.641ZM1001.64 65V200H984.141V47.5H1062.89V65H1001.64ZM900.391 42.5V25H1062.89V42.5H900.391Z" fill="white"/>
<path d="M728.5 450C704.333 450 683.667 441.5 666.5 424.5C649.5 407.333 641 386.667 641 362.5C641 338.333 649.5 317.75 666.5 300.75C683.667 283.583 704.333 275 728.5 275H791V292.5H728.5C709.167 292.5 692.667 299.333 679 313C665.333 326.667 658.5 343.167 658.5 362.5C658.5 381.833 665.333 398.333 679 412C692.667 425.667 709.167 432.5 728.5 432.5H791V450H728.5ZM728.5 427.5C710.5 427.5 695.167 421.167 682.5 408.5C669.833 395.833 663.5 380.5 663.5 362.5C663.5 344.5 669.833 329.167 682.5 316.5C695.167 303.833 710.5 297.5 728.5 297.5H791V315H728.5C715.333 315 704.083 319.667 694.75 329C685.583 338.167 681 349.333 681 362.5C681 375.833 685.583 387.083 694.75 396.25C703.917 405.417 715.167 410 728.5 410H791V427.5H728.5ZM907.912 450L845.912 382.5L853.662 365L932.662 450H907.912ZM940.912 328.75C940.912 337.417 937.829 344.833 931.662 351C925.662 357 918.329 360 909.662 360H855.662L863.412 342.5H909.662C913.495 342.5 916.745 341.167 919.412 338.5C922.079 335.833 923.412 332.583 923.412 328.75C923.412 324.917 922.079 321.667 919.412 319C916.745 316.333 913.495 315 909.662 315H840.912V450H823.412V297.5H909.662C918.329 297.5 925.662 300.583 931.662 306.75C937.829 312.75 940.912 320.083 940.912 328.75ZM938.412 450L860.412 365H909.662C919.662 365 928.162 361.5 935.162 354.5C942.329 347.333 945.912 338.75 945.912 328.75C945.912 318.75 942.329 310.25 935.162 303.25C928.162 296.083 919.662 292.5 909.662 292.5H818.412V450H800.912V275H909.662C924.495 275 937.162 280.25 947.662 290.75C958.162 301.25 963.412 313.917 963.412 328.75C963.412 343.583 958.162 356.25 947.662 366.75C937.162 377.25 924.495 382.5 909.662 382.5H900.662L963.412 450H938.412ZM996.02 427.5V365H1098.52V382.5H1013.52V410H1123.52V427.5H996.02ZM973.52 450V275H1123.52V292.5H991.02V432.5H1123.52V450H973.52ZM1013.52 315V342.5H1098.52V360H996.02V297.5H1123.52V315H1013.52ZM1171.08 427.5L1163.33 410H1220.58L1189.58 340L1140.83 450H1095.83V432.5H1128.58L1188.33 297.5H1190.83L1248.33 427.5H1171.08ZM1180.83 450L1173.08 432.5H1255.58L1193.58 292.5H1185.58L1125.83 427.5H1095.83V410H1113.58L1173.33 275H1205.83L1283.33 450H1180.83ZM1300.88 450V315H1239.63V297.5H1318.38V450H1300.88ZM1340.88 315V450H1323.38V297.5H1402.13V315H1340.88ZM1239.63 292.5V275H1402.13V292.5H1239.63ZM1412.24 450V275H1429.74V450H1412.24ZM1434.74 450V275H1452.24V450H1434.74ZM1572.29 450H1539.79L1462.29 275H1482.29L1552.04 432.5H1560.04L1629.79 275H1649.79L1572.29 450ZM1557.29 427.5H1554.79L1487.29 275H1507.29L1556.04 385L1604.79 275H1624.79L1557.29 427.5ZM1682.3 427.5V365H1784.8V382.5H1699.8V410H1809.8V427.5H1682.3ZM1659.8 450V275H1809.8V292.5H1677.3V432.5H1809.8V450H1659.8ZM1699.8 315V342.5H1784.8V360H1682.3V297.5H1809.8V315H1699.8Z" fill="white"/>
</svg>
