<svg width="75" height="75" viewBox="0 0 75 75" fill="none" xmlns="http://www.w3.org/2000/svg">
<rect width="75" height="75" rx="37.5" fill="#B2CA9B"/>
<path d="M54.4513 23.0123C54.2923 22.9959 54.1321 22.9959 53.9732 23.0123H21.3206C21.1114 23.0155 20.9035 23.0469 20.7026 23.1056L37.5536 39.8866L54.4513 23.0123Z" fill="#111111"/>
<path d="M56.1772 24.6333L39.1979 41.5426C38.7609 41.977 38.1698 42.2209 37.5536 42.2209C36.9375 42.2209 36.3463 41.977 35.9093 41.5426L19.0816 24.7616C19.0299 24.9517 19.0025 25.1476 19 25.3447V48.6679C19 49.2865 19.2457 49.8797 19.6831 50.3171C20.1205 50.7545 20.7138 51.0002 21.3323 51.0002H53.9849C54.6034 51.0002 55.1967 50.7545 55.6341 50.3171C56.0715 49.8797 56.3172 49.2865 56.3172 48.6679V25.3447C56.3079 25.1017 56.2607 24.8617 56.1772 24.6333ZM22.93 48.6679H21.309V47.0003L29.787 38.5923L31.4313 40.2365L22.93 48.6679ZM53.9615 48.6679H52.3289L43.8276 40.2365L45.4719 38.5923L53.9499 47.0003L53.9615 48.6679Z" fill="#111111"/>
</svg>
