<svg width="80" height="80" viewBox="0 0 80 80" fill="none" xmlns="http://www.w3.org/2000/svg">
<path fill-rule="evenodd" clip-rule="evenodd" d="M25.4996 47.429H33.2985C35.101 47.429 36.5727 48.8957 36.5727 50.6922V76.7368C36.5727 78.5324 35.101 80 33.2985 80H25.4996C23.697 80 22.2262 78.5333 22.2262 76.7368V50.6922C22.2253 48.8957 23.697 47.429 25.4996 47.429ZM47.2132 38.066H55.0121C56.8147 38.066 58.2863 39.5327 58.2863 41.3292V76.7359C58.2863 78.5324 56.8147 79.9991 55.0121 79.9991H47.2132C45.4107 79.9991 43.939 78.5324 43.939 76.7359V41.3292C43.939 39.5327 45.4116 38.066 47.2132 38.066ZM56.911 9.47202C57.4827 10.0338 57.4506 10.9565 56.8191 11.473C40.6648 24.6921 24.6014 31.0373 3.72615 31.9173C1.61677 32.0062 -0.0368364 33.7529 0.000624053 35.8543L0.00686743 36.2135C0.0452197 38.4136 1.87186 40.1114 4.05616 40.0189C27.1407 39.0447 45.1217 31.7982 62.8538 17.0225C63.3917 16.5745 64.1694 16.6047 64.6698 17.0972L67.3268 19.708C69.0518 21.4031 71.9674 20.4573 72.367 18.0795L74.8224 3.46735C75.1649 1.43083 73.3847 -0.319457 71.3457 0.0494457L56.7192 2.7011C54.3352 3.13312 53.4308 6.05145 55.1566 7.74662L56.911 9.47202ZM68.9269 28.7039H76.7258C78.5283 28.7039 80 30.1706 80 31.9671V76.7368C80 78.5324 78.5283 80 76.7258 80H68.9269C67.1243 80 65.6527 78.5333 65.6527 76.7368V31.9662C65.6536 30.1706 67.1252 28.7039 68.9269 28.7039ZM3.78502 56.792H11.5839C13.3865 56.792 14.8581 58.2587 14.8581 60.0544V76.7359C14.8581 78.5315 13.3865 79.9991 11.5839 79.9991H3.78502C1.98335 79.9991 0.510799 78.5324 0.510799 76.7359V60.0544C0.511691 58.2587 1.98335 56.792 3.78502 56.792Z" fill="#B2CA9B"/>
</svg>
