<svg width="80" height="80" viewBox="0 0 80 80" fill="none" xmlns="http://www.w3.org/2000/svg">
<path d="M52.0346 17.9804V25.1416L38.6411 38.5351C37.8476 39.3018 37.8256 40.5658 38.5916 41.3592C39.3582 42.1521 40.6223 42.1741 41.4157 41.4081C41.4322 41.3922 41.4487 41.3757 41.4645 41.3592L54.8587 27.9651H62.0193C62.5491 27.9651 63.0569 27.7552 63.431 27.3804L75.4128 15.3986C76.1928 14.6186 76.1928 13.354 75.4128 12.5739C75.038 12.1998 74.5302 11.9898 74.001 11.9892H68.0105V5.99865C68.0099 4.89575 67.1157 4.0022 66.0128 4.0022C65.4836 4.0022 64.9758 4.21277 64.6011 4.58691L52.6193 16.5687C52.2451 16.9428 52.0346 17.4512 52.0346 17.9804Z" fill="#B2CA9B"/>
<path d="M46.2875 25.2406C38.1619 21.7933 28.7808 25.5866 25.3336 33.7122C21.8863 41.8378 25.6797 51.2195 33.8052 54.6661C41.9308 58.1134 51.3125 54.3207 54.7591 46.1945C56.4516 42.2058 56.4516 37.7008 54.7591 33.7122L44.2886 44.1828C41.9827 46.5558 38.19 46.6107 35.8169 44.3054C33.4439 41.9995 33.389 38.2068 35.6943 35.8338C35.7345 35.7923 35.7754 35.752 35.8169 35.7117L46.2875 25.2406Z" fill="#B2CA9B"/>
<path d="M75.2847 21.1756L69.3094 27.1503C76.409 43.3404 69.0402 62.2204 52.8501 69.32C36.6606 76.4195 17.7806 69.0502 10.6804 52.8607C3.58086 36.6705 10.9502 17.7906 27.1403 10.691C35.3337 7.0979 44.6568 7.0979 52.8501 10.691L58.8242 4.71509C39.337 -5.68099 15.1116 1.68837 4.7155 21.1756C-5.68119 40.6622 1.68817 64.8882 21.1754 75.2849C40.6626 85.681 64.888 78.3116 75.2847 58.8244C81.5609 47.0593 81.5609 32.9407 75.2847 21.1756Z" fill="#B2CA9B"/>
<path d="M48.0408 17.9803C48.0383 16.402 48.6621 14.8871 49.776 13.7689C35.2558 8.33682 19.0815 15.7037 13.6488 30.2239C8.21671 44.7442 15.5836 60.9184 30.1038 66.3511C44.624 71.7832 60.7983 64.4163 66.231 49.8961C68.6041 43.5534 68.6041 36.5667 66.231 30.2239C65.1129 31.3378 63.598 31.9622 62.0196 31.9592H58.33C62.7825 42.0946 58.1762 53.9201 48.0408 58.3726C37.9059 62.8258 26.0798 58.2188 21.6273 48.084C17.1742 37.9485 21.7811 26.123 31.916 21.6699C37.0545 19.4128 42.9029 19.4128 48.0408 21.6699V17.9803Z" fill="#B2CA9B"/>
</svg>
