<svg width="75" height="52" viewBox="0 0 75 52" fill="none" xmlns="http://www.w3.org/2000/svg">
<path d="M7.6 44.4H9.28C7.76 41.52 6.62667 38.6533 5.88 35.8C5.13333 32.92 4.76 30.0533 4.76 27.2C4.76 21.4667 6.26667 15.7333 9.28 10H7.6C4.34667 15.6533 2.72 21.3867 2.72 27.2C2.72 32.96 4.34667 38.6933 7.6 44.4Z" fill="white"/>
<path fill-rule="evenodd" clip-rule="evenodd" d="M58.8055 32.116H15.4837C15.2158 32.116 15 31.8994 15 31.6325C15.0001 31.3655 15.2156 31.1489 15.4835 31.1489L58.8055 31.1489C59.0724 31.1489 59.2886 31.3655 59.2886 31.6325C59.2886 31.8994 59.072 32.116 58.8055 32.116ZM20.3123 34.4387H15.4837C15.2158 34.4387 15 34.2232 15 33.9552C15.0001 33.6882 15.2156 33.4717 15.4835 33.4717H20.3123C20.5792 33.4717 20.7956 33.6882 20.7956 33.9552C20.7959 34.2232 20.5791 34.4387 20.3123 34.4387ZM48.2948 34.4387H25.9935C25.7265 34.4387 25.5096 34.2232 25.5096 33.9552C25.5098 33.6882 25.7261 33.4717 25.9931 33.4717H48.2948C48.5618 33.4717 48.7781 33.6882 48.7781 33.9552C48.7781 34.2232 48.5615 34.4387 48.2948 34.4387ZM58.8055 34.4387H53.9765C53.7095 34.4387 53.4929 34.2232 53.4929 33.9552C53.4933 33.6882 53.7095 33.4717 53.9765 33.4717H58.8055C59.0724 33.4717 59.2886 33.6882 59.2886 33.9552C59.2886 34.2232 59.072 34.4387 58.8055 34.4387Z" fill="#ED1C24"/>
<path fill-rule="evenodd" clip-rule="evenodd" d="M32.4297 32.1159C32.1619 32.1159 31.9459 31.8993 31.9459 31.6324L31.9461 28.7022C31.9461 28.4353 32.1614 28.2188 32.4293 28.2188C32.6962 28.2188 32.9128 28.4353 32.9128 28.7022L32.9129 31.6324C32.9129 31.8993 32.6962 32.1159 32.4297 32.1159Z" fill="#ED1C24"/>
<path fill-rule="evenodd" clip-rule="evenodd" d="M15.4837 36.7619C15.2158 36.7619 15 36.5453 15 36.2784L15.0001 27.2956C15.0001 26.3206 15.6325 25.4967 16.5733 25.2438L20.6971 24.1399C21.0086 24.0562 21.2378 23.88 21.399 23.601L25.417 16.6408C25.8067 15.9659 26.4765 15.5791 27.2562 15.5791L32.4298 15.5791C32.6963 15.5791 32.9129 15.7957 32.9129 16.0627C32.913 16.3295 32.6963 16.5461 32.4294 16.5461H27.2563C26.8252 16.5461 26.4695 16.7516 26.255 17.1243L22.2364 24.0844C21.9449 24.5902 21.5108 24.9225 20.9467 25.0736L16.8245 26.1786C16.3118 26.3156 15.9669 26.7648 15.9669 27.2956L15.9673 36.2784C15.9673 36.5453 15.7504 36.7619 15.4837 36.7619Z" fill="#ED1C24"/>
<path fill-rule="evenodd" clip-rule="evenodd" d="M27.8516 18.734L25.137 23.4369L29.7594 23.3714V18.734H27.8516ZM24.294 24.416C24.1218 24.416 23.9633 24.3254 23.8767 24.1773C23.7881 24.0273 23.787 23.8409 23.8746 23.6908L27.1536 18.0088C27.2388 17.8587 27.399 17.7671 27.5712 17.7671H30.2426C30.5096 17.7671 30.726 17.9836 30.726 18.2506L30.7262 23.848C30.7262 24.1129 30.5133 24.3284 30.2484 24.3314L24.2998 24.416C24.2981 24.416 24.2956 24.416 24.294 24.416Z" fill="#ED1C24"/>
<path fill-rule="evenodd" clip-rule="evenodd" d="M58.8056 36.7624C58.5386 36.7624 58.3218 36.5458 58.3218 36.2788L58.322 28.7022C58.322 28.4353 58.5383 28.2188 58.8052 28.2188C59.0725 28.2188 59.2887 28.4353 59.2887 28.7022V36.2788C59.2887 36.5458 59.0721 36.7624 58.8056 36.7624Z" fill="#ED1C24"/>
<path fill-rule="evenodd" clip-rule="evenodd" d="M32.9129 28.2192H58.3218V14.2928C58.3218 13.0105 57.2771 11.967 55.9949 11.967L35.2385 11.967C33.9563 11.967 32.9128 13.0106 32.9128 14.2928L32.9129 28.2192ZM58.8054 29.1861H32.4297C32.1619 29.1861 31.9459 28.9696 31.9459 28.7027L31.9461 14.2928C31.9461 12.4766 33.4225 11 35.2385 11L55.9952 11C57.811 11 59.2886 12.4766 59.2886 14.2928V28.7027C59.2886 28.9696 59.072 29.1862 58.8054 29.1861Z" fill="#ED1C24"/>
<path fill-rule="evenodd" clip-rule="evenodd" d="M18.7604 28.4684H15.4837C15.2158 28.4684 15 28.2518 15 27.985C15.0001 27.718 15.2156 27.5014 15.4835 27.5014H18.2767V25.1596C18.2767 24.8926 18.4931 24.676 18.7601 24.676C19.0273 24.676 19.2435 24.8926 19.2435 25.1596L19.2439 27.985C19.2439 28.2518 19.0269 28.4684 18.7604 28.4684Z" fill="#ED1C24"/>
<path fill-rule="evenodd" clip-rule="evenodd" d="M20.3123 34.4391H15.4837C15.2158 34.4391 15 34.2236 15 33.9556C15.0001 33.6887 15.2156 33.4722 15.4835 33.4722H20.3123C20.5792 33.4722 20.7956 33.6887 20.7956 33.9556C20.7959 34.2236 20.5791 34.4391 20.3123 34.4391ZM48.2948 34.4391H25.9935C25.7265 34.4391 25.5096 34.2236 25.5096 33.9556C25.5098 33.6887 25.7261 33.4722 25.9931 33.4722H48.2948C48.5618 33.4722 48.7781 33.6887 48.7781 33.9556C48.7781 34.2236 48.5615 34.4391 48.2948 34.4391ZM58.8055 34.4391H53.9765C53.7095 34.4391 53.4929 34.2236 53.4929 33.9556C53.4933 33.6887 53.7095 33.4722 53.9765 33.4722H58.8055C59.0724 33.4722 59.2886 33.6887 59.2886 33.9556C59.2886 34.2236 59.072 34.4391 58.8055 34.4391ZM15.4837 36.7629C15.2167 36.7629 15 36.5463 15 36.2794C15.0001 36.0125 15.2156 35.7959 15.4835 35.7959L19.2729 35.795C19.5399 35.795 19.7562 36.0115 19.7562 36.2783C19.7566 36.5453 19.5397 36.7619 19.2726 36.7619L15.4837 36.7629ZM47.2551 36.7629H27.0327C26.7658 36.7629 26.5491 36.5463 26.5491 36.2794C26.5492 36.0125 26.7657 35.7959 27.0325 35.7959H47.2551C47.5219 35.7959 47.7385 36.0125 47.7385 36.2794C47.7386 36.5463 47.5219 36.7629 47.2551 36.7629ZM58.8055 36.7629H55.0162C54.7492 36.7629 54.5323 36.5463 54.5323 36.2794C54.5327 36.0125 54.7489 35.7959 55.0159 35.7959H58.8055C59.0724 35.7959 59.2886 36.0125 59.2886 36.2794C59.2886 36.5463 59.072 36.7629 58.8055 36.7629Z" fill="#ED1C24"/>
<path fill-rule="evenodd" clip-rule="evenodd" d="M23.1527 33.2087C21.2713 33.2087 19.7409 34.7388 19.7409 36.6203C19.741 38.5019 21.271 40.0329 23.1525 40.0329C25.0342 40.0329 26.5641 38.5019 26.5641 36.6203C26.5645 34.7387 25.0341 33.2087 23.1527 33.2087ZM23.1527 40.9999C20.7382 40.9999 18.774 39.0347 18.774 36.6203C18.7742 34.2059 20.7382 32.2417 23.1525 32.2417C25.5673 32.2417 27.531 34.2059 27.531 36.6203C27.5313 39.0347 25.5669 40.9999 23.1527 40.9999Z" fill="#ED1C24"/>
<path fill-rule="evenodd" clip-rule="evenodd" d="M51.1351 33.2087C49.255 33.2087 47.7235 34.7388 47.7235 36.6203C47.7238 38.5019 49.2545 40.0329 51.1351 40.0329C53.017 40.0329 54.5477 38.5019 54.5477 36.6203C54.5477 34.7387 53.0166 33.2087 51.1351 33.2087ZM51.1351 40.9999C48.721 40.9999 46.7566 39.0347 46.7566 36.6203C46.757 34.2059 48.7207 32.2417 51.1351 32.2417C53.5496 32.2417 55.5146 34.2059 55.5146 36.6203C55.5149 39.0347 53.5495 40.9999 51.1351 40.9999Z" fill="#ED1C24"/>
<path fill-rule="evenodd" clip-rule="evenodd" d="M51.1346 35.073C50.2815 35.073 49.5875 35.7679 49.5875 36.6211C49.5876 37.4753 50.2815 38.1693 51.1346 38.1693C51.9889 38.1693 52.6827 37.4753 52.6827 36.6211C52.6829 35.7679 51.9887 35.073 51.1346 35.073ZM51.1346 39.1362C49.749 39.1362 48.6205 38.0081 48.6205 36.6211C48.6208 35.2341 49.7486 34.106 51.1346 34.106C52.5215 34.106 53.6497 35.2341 53.6497 36.6211C53.6497 38.0081 52.5215 39.1362 51.1346 39.1362Z" fill="#ED1C24"/>
<path fill-rule="evenodd" clip-rule="evenodd" d="M23.1526 35.073C22.2996 35.073 21.6042 35.7679 21.6042 36.6211C21.6042 37.4753 22.2993 38.1693 23.1523 38.1693C24.0056 38.1693 24.7005 37.4753 24.7005 36.6211C24.7005 35.7679 24.0055 35.073 23.1526 35.073ZM23.1526 39.1362C21.7656 39.1362 20.6373 38.0081 20.6373 36.6211C20.6374 35.2341 21.7653 34.106 23.1523 34.106C24.5396 34.106 25.6675 35.2341 25.6675 36.6211C25.6677 38.0081 24.5394 39.1362 23.1526 39.1362Z" fill="#ED1C24"/>
<path fill-rule="evenodd" clip-rule="evenodd" d="M40.1657 14.6745C39.077 14.6745 38.0787 15.0835 37.2406 15.9034C35.294 17.8092 34.8837 21.2147 36.3441 23.3411C38.3245 26.2239 43.0374 26.2409 49.2763 23.3863C51.5529 22.3458 52.4621 21.3607 52.4159 19.9888C52.3376 17.6419 50.8546 17.4153 48.2409 17.2179C46.6659 17.099 45.0367 16.9762 43.825 16.0363C42.5612 15.1288 41.314 14.6745 40.1657 14.6745ZM41.2807 26.4847C41.0038 26.4847 40.7328 26.4747 40.4679 26.4535C37.7091 26.238 36.2687 24.9396 35.5465 23.888C34.6903 22.641 34.3418 21.0313 34.5654 19.3544C34.7782 17.7567 35.5072 16.2479 36.5638 15.2124C37.5191 14.2787 38.6941 13.758 39.9653 13.7066C41.395 13.6481 42.8853 14.1689 44.3961 15.2568C44.4023 15.2597 44.4062 15.2638 44.4112 15.2678C45.3945 16.0334 46.8781 16.1451 48.3133 16.2539C50.6374 16.4292 53.271 16.6287 53.3828 19.9566C53.4595 22.226 51.5526 23.4085 49.6782 24.2657C46.4561 25.7404 43.6366 26.4847 41.2807 26.4847Z" fill="#ED1C24"/>
<path fill-rule="evenodd" clip-rule="evenodd" d="M48.7628 22.7469C48.5796 22.7469 48.4041 22.6422 48.3224 22.4639C48.2121 22.2211 48.3184 21.9351 48.5612 21.8232L48.6086 21.8011C49.0569 21.5966 49.7326 21.2883 50.1989 20.8925C50.4026 20.7193 50.7076 20.7445 50.8799 20.9479C51.053 21.1514 51.0278 21.4566 50.8244 21.6299C50.2568 22.1123 49.5069 22.4548 49.0104 22.6814L48.9631 22.7026C48.8986 22.7328 48.8301 22.7469 48.7628 22.7469Z" fill="#ED1C24"/>
<path fill-rule="evenodd" clip-rule="evenodd" d="M43.3203 26.3099C43.1019 26.3099 42.9043 26.1619 42.8509 25.9413C42.7184 25.3964 42.3111 24.7487 41.9181 24.1222C41.4239 23.3345 40.9563 22.5902 40.9412 21.9233C40.8972 19.9663 42.0481 19.0365 43.0463 18.8351C44.1937 18.6033 45.3037 19.2279 45.7468 20.3521C45.922 20.7952 45.9029 21.3059 45.8817 21.8448C45.8436 22.8742 45.8062 23.8452 46.9726 24.5191C47.2043 24.652 47.2839 24.9481 47.1498 25.1788C47.0162 25.4104 46.7208 25.4901 46.4892 25.3561C44.8183 24.3911 44.8745 22.8984 44.9158 21.8085C44.933 21.3733 44.948 20.9614 44.8473 20.7076C44.5323 19.9078 43.8128 19.6671 43.2376 19.7829C42.5751 19.9168 41.8779 20.5434 41.9081 21.9022C41.9174 22.3021 42.3343 22.9658 42.7371 23.6075C43.1716 24.2994 43.6205 25.0146 43.7897 25.7116C43.8533 25.9715 43.694 26.2324 43.4351 26.2959C43.3969 26.3059 43.3576 26.31 43.3203 26.3099Z" fill="#ED1C24"/>
<path fill-rule="evenodd" clip-rule="evenodd" d="M38.9372 19.9583C38.6485 19.9583 38.364 19.8897 38.1223 19.7628C37.4568 19.4123 37.2409 18.6992 37.5854 17.9901C38.2795 16.5627 38.5262 15.4165 38.3398 14.4869C38.2877 14.2249 38.4577 13.9701 38.7196 13.9177C38.9816 13.8653 39.2362 14.0356 39.2887 14.2974C39.5174 15.4417 39.2444 16.7884 38.4557 18.4122C38.338 18.6538 38.3731 18.802 38.5736 18.9077C38.8416 19.0487 39.3522 19.0336 39.5778 18.6378C40.5417 16.9475 41.8088 15.9494 43.9542 15.1929C44.2054 15.1032 44.4821 15.2363 44.5707 15.488C44.6596 15.7399 44.5274 16.0158 44.2755 16.1045C42.347 16.7843 41.2659 17.6295 40.4178 19.1162C40.0867 19.6994 39.5013 19.9583 38.9372 19.9583Z" fill="#ED1C24"/>
<path fill-rule="evenodd" clip-rule="evenodd" d="M38.5475 21.1877C38.2383 21.1877 37.9864 21.4395 37.9864 21.7487C37.9868 22.058 38.2381 22.3097 38.5475 22.3097C38.8571 22.3097 39.1085 22.058 39.1085 21.7487C39.1086 21.4395 38.8567 21.1877 38.5475 21.1877ZM38.5475 23.2768C37.7044 23.2768 37.0195 22.5908 37.0195 21.7487C37.0195 20.9056 37.7043 20.2207 38.5475 20.2207C39.3906 20.2207 40.0754 20.9056 40.0754 21.7487C40.0754 22.5908 39.3904 23.2768 38.5475 23.2768Z" fill="#ED1C24"/>
<path fill-rule="evenodd" clip-rule="evenodd" d="M48.5697 19.4188C48.5574 19.4188 48.545 19.4188 48.532 19.4179C47.6718 19.3968 46.73 18.6383 45.056 16.6206C44.8861 16.4152 44.914 16.11 45.1195 15.9398C45.3253 15.7686 45.6301 15.7978 45.8004 16.0032C46.6659 17.0458 47.8923 18.4348 48.5561 18.4519C48.8706 18.4569 49.1867 18.1316 49.7175 17.5534C49.9404 17.3097 50.1919 17.0347 50.487 16.7506C50.6797 16.5653 50.9857 16.5704 51.171 16.7627C51.3563 16.9551 51.3503 17.2613 51.1579 17.4467C50.8849 17.7106 50.6432 17.9735 50.4307 18.2061C49.8347 18.8558 49.3187 19.4188 48.5697 19.4188Z" fill="#ED1C24"/>
<path fill-rule="evenodd" clip-rule="evenodd" d="M55.7585 22.5108C55.7172 22.5108 55.6758 22.5088 55.6335 22.5027L52.4083 22.1049C52.1437 22.0717 51.9551 21.8299 51.9873 21.565C52.0209 21.3001 52.2613 21.1127 52.5262 21.1449L55.7526 21.5438L55.7689 21.5348L55.7667 18.657C55.7667 18.657 55.7625 18.648 55.7625 18.647L55.6914 18.1645L55.7526 18.6439L52.6745 19.0388C52.4083 19.073 52.1676 18.8857 52.1334 18.6207C52.0993 18.3558 52.2866 18.1141 52.5514 18.0799L55.6297 17.685C55.914 17.6487 56.1876 17.7334 56.4011 17.9217C56.616 18.1101 56.7335 18.3709 56.7335 18.657L56.7339 21.5307C56.7339 21.8158 56.6167 22.0767 56.4032 22.265C56.2208 22.4252 55.9962 22.5108 55.7585 22.5108Z" fill="#ED1C24"/>
<path d="M66.6887 44.4H65.0087C66.5287 41.52 67.662 38.6533 68.4087 35.8C69.1554 32.92 69.5287 30.0533 69.5287 27.2C69.5287 21.4667 68.022 15.7333 65.0087 10H66.6887C69.942 15.6533 71.5687 21.3867 71.5687 27.2C71.5687 32.96 69.942 38.6933 66.6887 44.4Z" fill="white"/>
</svg>
