<svg width="63" height="52" viewBox="0 0 63 52" fill="none" xmlns="http://www.w3.org/2000/svg">
<path d="M7.6 44.4H9.28C7.76 41.52 6.62667 38.6533 5.88 35.8C5.13333 32.92 4.76 30.0533 4.76 27.2C4.76 21.4667 6.26667 15.7333 9.28 10H7.6C4.34667 15.6533 2.72 21.3867 2.72 27.2C2.72 32.96 4.34667 38.6933 7.6 44.4Z" fill="white"/>
<path d="M43.8822 29.8418V19.5979" stroke="#ED1C24" stroke-miterlimit="10" stroke-linecap="round" stroke-linejoin="round"/>
<path d="M46.1586 19.5979V29.8418" stroke="#ED1C24" stroke-miterlimit="10" stroke-linecap="round" stroke-linejoin="round"/>
<path d="M18.8418 29.8418V19.5979" stroke="#ED1C24" stroke-miterlimit="10" stroke-linecap="round" stroke-linejoin="round"/>
<path d="M16.5651 19.5979V29.8418" stroke="#ED1C24" stroke-miterlimit="10" stroke-linecap="round" stroke-linejoin="round"/>
<path d="M41.3676 8.50019H44.4514L47.2972 13.053" stroke="#ED1C24" stroke-miterlimit="10" stroke-linecap="round" stroke-linejoin="round"/>
<path d="M15.4269 13.053L18.2727 8.50019H38.903" stroke="#ED1C24" stroke-miterlimit="10" stroke-linecap="round" stroke-linejoin="round"/>
<path d="M19.98 15.3293V17.6057C19.98 18.8629 20.9992 19.8821 22.2564 19.8821C23.5137 19.8821 24.5328 18.8629 24.5328 17.6057V15.3293H19.98Z" stroke="#ED1C24" stroke-miterlimit="10" stroke-linecap="round" stroke-linejoin="round"/>
<path d="M29.0854 15.3293V17.6057C29.0854 18.8629 30.1046 19.8821 31.3618 19.8821C32.6191 19.8821 33.6382 18.8629 33.6382 17.6057V15.3293H29.0854Z" stroke="#ED1C24" stroke-miterlimit="10" stroke-linecap="round" stroke-linejoin="round"/>
<path d="M38.1913 15.3293V17.6057C38.1913 18.8629 39.2105 19.8821 40.4677 19.8821C41.7249 19.8821 42.7441 18.8629 42.7441 17.6057V15.3293H38.1913Z" stroke="#ED1C24" stroke-miterlimit="10" stroke-linecap="round" stroke-linejoin="round"/>
<path d="M15.4269 15.3293V17.6057C15.4269 18.8629 16.4461 19.8821 17.7033 19.8821C18.9606 19.8821 19.9797 18.8629 19.9797 17.6057V15.3293H15.4269Z" stroke="#ED1C24" stroke-miterlimit="10" stroke-linecap="round" stroke-linejoin="round"/>
<path d="M24.5327 15.3293V17.6057C24.5327 18.8629 25.5519 19.8821 26.8091 19.8821C28.0664 19.8821 29.0855 18.8629 29.0855 17.6057V15.3293H24.5327Z" stroke="#ED1C24" stroke-miterlimit="10" stroke-linecap="round" stroke-linejoin="round"/>
<path d="M33.6385 15.3293V17.6057C33.6385 18.8629 34.6578 19.8821 35.9149 19.8821C37.1722 19.8821 38.1913 18.8629 38.1913 17.6057V15.3293H33.6385Z" stroke="#ED1C24" stroke-miterlimit="10" stroke-linecap="round" stroke-linejoin="round"/>
<path d="M42.744 15.3293V17.6057C42.744 18.8629 43.7632 19.8821 45.0204 19.8821C46.2776 19.8821 47.2968 18.8629 47.2968 17.6057V15.3293H42.744Z" stroke="#ED1C24" stroke-miterlimit="10" stroke-linecap="round" stroke-linejoin="round"/>
<path d="M47.7236 15.3293L15 15.3293V13.053L47.7236 13.053V15.3293Z" stroke="#ED1C24" stroke-miterlimit="10" stroke-linecap="round" stroke-linejoin="round"/>
<path d="M26.8091 34.3944H35.9148V41.2236H26.8091V34.3944Z" stroke="#ED1C24" stroke-miterlimit="10" stroke-linecap="round" stroke-linejoin="round"/>
<path d="M21.1182 29.8418V26.4272H30.2239V29.8418" stroke="#ED1C24" stroke-miterlimit="10" stroke-linecap="round" stroke-linejoin="round"/>
<path d="M16.0674 32.1177V43.5H40.016" stroke="#ED1C24" stroke-miterlimit="10" stroke-linecap="round" stroke-linejoin="round"/>
<path d="M46.6565 32.1177V43.5H42.4812" stroke="#ED1C24" stroke-miterlimit="10" stroke-linecap="round" stroke-linejoin="round"/>
<path d="M25.7634 29.8411H47.7239V32.1172H15V29.8411H23.2986" stroke="#ED1C24" stroke-miterlimit="10" stroke-linecap="round" stroke-linejoin="round"/>
<path d="M55.1239 44.4H53.4439C54.9639 41.52 56.0973 38.6533 56.8439 35.8C57.5906 32.92 57.9639 30.0533 57.9639 27.2C57.9639 21.4667 56.4573 15.7333 53.4439 10H55.1239C58.3773 15.6533 60.0039 21.3867 60.0039 27.2C60.0039 32.96 58.3773 38.6933 55.1239 44.4Z" fill="white"/>
</svg>
