<svg width="70" height="52" viewBox="0 0 70 52" fill="none" xmlns="http://www.w3.org/2000/svg">
<path d="M7.6 44.4H9.28C7.76 41.52 6.62667 38.6533 5.88 35.8C5.13333 32.92 4.76 30.0533 4.76 27.2C4.76 21.4667 6.26667 15.7333 9.28 10H7.6C4.34667 15.6533 2.72 21.3867 2.72 27.2C2.72 32.96 4.34667 38.6933 7.6 44.4Z" fill="white"/>
<path d="M15.5258 36.7006C23.452 44.6269 22.6886 43.9009 22.7553 43.9309L24.2994 45.4742C25.002 46.1753 26.1395 46.1753 26.8421 45.4742L34.6957 37.6207C34.8817 38.114 34.449 37.6253 42.7379 45.1049C44.2206 46.4429 46.9334 45.9789 48.2088 44.5662L54.1263 38.0073C55.3706 36.4959 55.1561 34.2623 53.6469 33.0152L46.1054 26.211L54.4696 17.8467C55.1706 17.1441 55.1706 16.0066 54.4696 15.304L45.696 6.53039C44.9841 5.85228 43.8652 5.85228 43.1533 6.53039L33.7256 15.958L23.6567 6.37172C23.1198 5.8604 22.2707 5.87887 21.7566 6.41305L17.3665 10.9759C17.1169 11.2409 16.9839 11.5948 16.9971 11.9586L17.1705 15.8407C17.2006 16.399 17.5718 16.881 18.1038 17.0527L21.6413 18.1441L21.8013 21.8475C21.8271 22.4103 22.2048 22.8956 22.744 23.0589L25.7001 23.9796L15.5258 34.1579C14.8247 34.8605 14.8247 35.998 15.5258 36.7006ZM25.8994 44.5315C25.7148 44.7054 25.4267 44.7054 25.2421 44.5315L24.1414 43.4302L28.8168 38.4594C28.98 38.2857 29.0381 38.0382 28.9693 37.8101C28.9005 37.582 28.7153 37.4079 28.4833 37.3534C28.2514 37.299 28.008 37.3724 27.8448 37.546L23.1973 42.4868L21.3266 40.6161L23.4687 38.474C23.7213 38.2124 23.7177 37.7966 23.4606 37.5394C23.2034 37.2823 22.7876 37.2787 22.526 37.5313L20.3839 39.6734L18.4839 37.7733C20.1253 36.2191 22.4076 35.5371 24.6327 35.9359C26.9512 36.3496 29.3371 35.7761 31.2142 34.3539C31.3688 34.6989 31.6609 34.9632 32.0196 35.0826L34.4537 35.8393C34.4743 36.0293 35.1397 35.2913 25.8994 44.5315ZM53.1362 37.114L47.2187 43.6728C46.412 44.5675 44.5613 44.9549 43.6313 44.1149L35.9811 37.2113C35.9097 37.148 35.9524 37.3193 35.6724 34.6832L43.6479 25.8363C43.7279 25.8363 43.1286 25.321 52.7536 34.0052C53.7095 34.7626 53.88 36.1474 53.1362 37.114ZM53.6649 16.5754C53.6649 16.8527 54.3109 16.1233 45.1173 25.317C44.6026 24.8503 44.3086 24.5049 43.6639 24.5023C43.4037 24.5029 43.1491 24.5783 42.9306 24.7196L41.4592 23.3196L42.5446 22.2342C42.8051 21.9728 42.8043 21.5497 42.5429 21.2892C42.2815 21.0287 41.8584 21.0294 41.5979 21.2908L40.4912 22.4022L38.0911 20.1141C39.7204 18.6611 41.9269 18.037 44.076 18.4214C46.818 18.9145 49.6268 18.0232 51.5829 16.0393L52.4442 15.1647C53.6456 16.366 53.6649 16.3227 53.6649 16.5754ZM44.096 7.47309C44.2806 7.29918 44.5687 7.29918 44.7533 7.47309L45.84 8.55979L43.9546 10.4458C43.7813 10.6132 43.7118 10.8611 43.7728 11.0942C43.8338 11.3273 44.0159 11.5093 44.249 11.5703C44.4821 11.6314 44.7299 11.5618 44.8973 11.3885L46.7827 9.50315L48.6688 11.3885L46.7834 13.2739C46.5307 13.5355 46.5343 13.9513 46.7915 14.2085C47.0487 14.4657 47.4645 14.4693 47.7261 14.2166L49.6115 12.3312L51.4989 14.2186L50.6322 15.1006C48.9845 16.7714 46.6186 17.5215 44.3093 17.1054C41.7198 16.6425 39.0625 17.4136 37.1231 19.1908L34.6937 16.8774L44.096 7.47309ZM22.9767 18.0834C22.951 17.5199 22.5735 17.0334 22.034 16.8687L18.5005 15.7767L18.3305 11.8972L22.7373 7.33508L42.0046 25.675C34.3143 34.1979 34.4977 33.7979 34.3723 34.4146L32.4169 33.8085C32.3849 33.0919 32.2836 30.9038 32.2503 30.1044C32.2257 29.5415 31.8482 29.0555 31.3089 28.8924L27.7755 27.7924C27.6048 24.0103 27.6775 23.8056 27.3341 23.3582C27.1635 23.1393 26.9345 22.9732 26.6734 22.8789L23.1353 21.7869L22.9767 18.0834ZM16.4685 35.1006L26.3268 25.2423C26.4601 28.1757 26.4301 27.9497 26.5161 28.2077L22.526 32.1978C22.3527 32.3652 22.2832 32.6131 22.3442 32.8462C22.4052 33.0793 22.5872 33.2613 22.8203 33.3223C23.0534 33.3833 23.3013 33.3138 23.4687 33.1405L27.5048 29.1044L30.9182 30.1664L31.0349 32.7532C29.3958 34.3263 27.103 35.0202 24.8667 34.6199C22.212 34.1451 19.4901 34.9666 17.5412 36.8306L16.4685 35.7573C16.2884 35.5754 16.2884 35.2825 16.4685 35.1006Z" fill="#ED1C24"/>
<path d="M40.1831 15.1596C40.4434 15.4198 40.8654 15.4198 41.1258 15.1596L43.0118 13.2742C43.1802 13.1057 43.2459 12.8601 43.1842 12.63C43.1225 12.3999 42.9426 12.2202 42.7125 12.1587C42.4824 12.0971 42.2369 12.163 42.0685 12.3315L40.1831 14.2169C39.9228 14.4772 39.9228 14.8992 40.1831 15.1596Z" fill="#ED1C24"/>
<path d="M40.2524 39.2027L44.2892 42.8441C44.5624 43.0907 44.9838 43.0692 45.2305 42.7961L51.6041 35.7326C51.7226 35.6012 51.7841 35.4281 51.775 35.2515C51.7658 35.0748 51.6868 34.9089 51.5554 34.7905L47.5193 31.1491C47.3879 31.0305 47.2149 30.9691 47.0382 30.9782C46.8615 30.9873 46.6957 31.0663 46.5772 31.1977L40.2044 38.2593C40.0853 38.3906 40.0235 38.5639 40.0325 38.7409C40.0415 38.918 40.1206 39.0841 40.2524 39.2027ZM47.1193 32.5858L50.1667 35.3359L44.6872 41.4087L41.6411 38.66L47.1193 32.5858Z" fill="#ED1C24"/>
<path d="M23.254 9.74717C22.9862 9.50228 22.5717 9.51662 22.3214 9.77942C22.0711 10.0422 22.077 10.457 22.3347 10.7125C23.3794 11.7072 23.4361 11.8339 23.7787 11.8339C24.0516 11.8342 24.2972 11.6682 24.3986 11.4148C24.4999 11.1614 24.4366 10.8718 24.2387 10.6839L23.254 9.74717Z" fill="#ED1C24"/>
<path d="M31.653 19.3315C31.9256 19.3316 32.1708 19.1656 32.2721 18.9125C32.3734 18.6595 32.3104 18.3702 32.1131 18.1821L26.2069 12.5586C25.9383 12.3195 25.5285 12.3365 25.2806 12.597C25.0327 12.8575 25.0361 13.2676 25.2882 13.524L31.1937 19.1475C31.3175 19.2655 31.482 19.3314 31.653 19.3315Z" fill="#ED1C24"/>
<path d="M62.3954 44.4H60.7154C62.2354 41.52 63.3687 38.6533 64.1154 35.8C64.862 32.92 65.2354 30.0533 65.2354 27.2C65.2354 21.4667 63.7287 15.7333 60.7154 10H62.3954C65.6487 15.6533 67.2754 21.3867 67.2754 27.2C67.2754 32.96 65.6487 38.6933 62.3954 44.4Z" fill="white"/>
</svg>
