<svg width="70" height="52" viewBox="0 0 70 52" fill="none" xmlns="http://www.w3.org/2000/svg">
<path d="M7.6 44.4H9.28C7.76 41.52 6.62667 38.6533 5.88 35.8C5.13333 32.92 4.76 30.0533 4.76 27.2C4.76 21.4667 6.26667 15.7333 9.28 10H7.6C4.34667 15.6533 2.72 21.3867 2.72 27.2C2.72 32.96 4.34667 38.6933 7.6 44.4Z" fill="white"/>
<path d="M34.8434 38.2017L22.624 30.5252V15.5205L34.8434 23.1971V38.2017Z" stroke="#ED1C24" stroke-width="1.5" stroke-miterlimit="10" stroke-linecap="round" stroke-linejoin="round"/>
<path d="M34.8433 38.2017L47.0626 30.5252V15.5205L34.8433 23.1971V38.2017Z" stroke="#ED1C24" stroke-width="1.5" stroke-miterlimit="10" stroke-linecap="round" stroke-linejoin="round"/>
<path d="M22.6238 15.5205L34.8431 8.5L47.0625 15.5205" stroke="#ED1C24" stroke-width="1.5" stroke-miterlimit="10" stroke-linecap="round" stroke-linejoin="round"/>
<path d="M22.6238 30.5263L30.5803 26.4309" stroke="#ED1C24" stroke-width="1.5" stroke-miterlimit="10" stroke-linecap="round" stroke-linejoin="round"/>
<path d="M38.8517 26.4309L47.0623 30.5263" stroke="#ED1C24" stroke-width="1.5" stroke-miterlimit="10" stroke-linecap="round" stroke-linejoin="round"/>
<path d="M34.802 8.52734V18.8015" stroke="#ED1C24" stroke-width="1.5" stroke-miterlimit="10" stroke-linecap="round" stroke-linejoin="round"/>
<path d="M50.9408 28.7369C53.2705 30.2668 54.642 32.1421 54.642 34.1682C54.642 39.322 45.7678 43.5 34.821 43.5C23.8742 43.5 15 39.322 15 34.1682C15 31.7838 16.8995 29.6083 20.0248 27.9587" stroke="#ED1C24" stroke-width="1.5" stroke-miterlimit="10" stroke-linecap="round" stroke-linejoin="round"/>
<path d="M51.3831 31.894L50.1054 28.8394L54.0812 28.063" stroke="#ED1C24" stroke-width="1.5" stroke-miterlimit="10" stroke-linecap="round" stroke-linejoin="round"/>
<path d="M62.042 44.4H60.362C61.882 41.52 63.0154 38.6533 63.762 35.8C64.5087 32.92 64.882 30.0533 64.882 27.2C64.882 21.4667 63.3754 15.7333 60.362 10H62.042C65.2954 15.6533 66.922 21.3867 66.922 27.2C66.922 32.96 65.2954 38.6933 62.042 44.4Z" fill="white"/>
</svg>
