<svg width="64" height="52" viewBox="0 0 64 52" fill="none" xmlns="http://www.w3.org/2000/svg">
<path d="M7.6 44.4H9.28C7.76 41.52 6.62667 38.6533 5.88 35.8C5.13333 32.92 4.76 30.0533 4.76 27.2C4.76 21.4667 6.26667 15.7333 9.28 10H7.6C4.34667 15.6533 2.72 21.3867 2.72 27.2C2.72 32.96 4.34667 38.6933 7.6 44.4Z" fill="white"/>
<path d="M16.8762 45.9998C16.5305 45.9998 16.2512 45.7204 16.2512 45.3748V37.8767C16.2512 37.5311 16.5305 37.2517 16.8762 37.2517C17.2218 37.2517 17.5012 37.5311 17.5012 37.8767V45.3748C17.5012 45.7204 17.2218 45.9998 16.8762 45.9998Z" fill="#ED1C24"/>
<path d="M16.875 38.5017C15.8412 38.5017 15 37.6604 15 36.6267C15 35.593 15.8412 34.7517 16.875 34.7517C17.9087 34.7517 18.75 35.593 18.75 36.6267C18.75 37.6604 17.9087 38.5017 16.875 38.5017ZM16.875 36.0017C16.53 36.0017 16.25 36.2817 16.25 36.6267C16.25 36.9717 16.53 37.2517 16.875 37.2517C17.22 37.2517 17.5 36.9717 17.5 36.6267C17.5 36.2817 17.22 36.0017 16.875 36.0017Z" fill="#ED1C24"/>
<path d="M46.8699 45.9998C46.5243 45.9998 46.2449 45.7204 46.2449 45.3748V37.8767C46.2449 37.5311 46.5243 37.2517 46.8699 37.2517C47.2156 37.2517 47.4949 37.5311 47.4949 37.8767V45.3748C47.4949 45.7204 47.2156 45.9998 46.8699 45.9998Z" fill="#ED1C24"/>
<path d="M46.8688 38.5017C45.835 38.5017 44.9938 37.6604 44.9938 36.6267C44.9938 35.593 45.835 34.7517 46.8688 34.7517C47.9025 34.7517 48.7438 35.593 48.7438 36.6267C48.7438 37.6604 47.9025 38.5017 46.8688 38.5017ZM46.8688 36.0017C46.5238 36.0017 46.2438 36.2817 46.2438 36.6267C46.2438 36.9717 46.5238 37.2517 46.8688 37.2517C47.2138 37.2517 47.4938 36.9717 47.4938 36.6267C47.4938 36.2817 47.2138 36.0017 46.8688 36.0017Z" fill="#ED1C24"/>
<path d="M31.8719 40.3799C22.5031 40.3799 16.9112 38.5474 16.6775 38.4693C16.3506 38.3599 16.1737 38.0061 16.2831 37.6786C16.3925 37.3511 16.7494 37.1755 17.0737 37.2836C17.1294 37.3018 22.7244 39.1293 31.8719 39.1293C41.0194 39.1293 46.6168 37.3018 46.6725 37.2836C46.9975 37.1755 47.3537 37.3505 47.4631 37.6786C47.5725 38.0068 47.3962 38.3599 47.0681 38.4693C46.8343 38.5474 41.2406 40.3799 31.8719 40.3799Z" fill="#ED1C24"/>
<path d="M35.6216 36.626H28.1216C27.776 36.626 27.4966 36.3466 27.4966 36.001V34.126C27.4966 33.7803 27.776 33.501 28.1216 33.501H35.6216C35.9672 33.501 36.2466 33.7803 36.2466 34.126V36.001C36.2466 36.3466 35.9672 36.626 35.6216 36.626ZM28.7466 35.376H34.9966V34.751H28.7466V35.376Z" fill="#ED1C24"/>
<path d="M41.2466 32.8767H22.4966C22.151 32.8767 21.8716 32.5973 21.8716 32.2517V6.625C21.8716 6.28 22.151 6 22.4966 6L41.2466 6C41.5923 6 41.8716 6.28 41.8716 6.625V32.2517C41.8716 32.5973 41.5923 32.8767 41.2466 32.8767ZM23.1216 31.6267H40.6216V7.24999L23.1216 7.24999V31.6267Z" fill="#ED1C24"/>
<path d="M39.3717 31.0017H24.3717C24.0261 31.0017 23.7467 30.7224 23.7467 30.3767V8.5C23.7467 8.155 24.0261 7.875 24.3717 7.875L39.3717 7.875C39.7173 7.875 39.9967 8.155 39.9967 8.5V30.3767C39.9967 30.7224 39.7173 31.0017 39.3717 31.0017ZM24.9967 29.7517H38.7467V9.12499H24.9967V29.7517Z" fill="#ED1C24"/>
<path d="M24.3717 31.0018C24.0261 31.0018 23.7467 30.7224 23.7467 30.3768C23.7467 21.76 30.7567 14.75 39.3736 14.75C39.7192 14.75 39.9986 15.03 39.9986 15.375C39.9986 15.72 39.7192 16 39.3736 16C31.4461 16 24.9967 22.4493 24.9967 30.3768C24.9967 30.7224 24.7173 31.0018 24.3717 31.0018Z" fill="#ED1C24"/>
<path d="M26.8717 31.0018C26.5261 31.0018 26.2467 30.7224 26.2467 30.3768C26.2467 23.1387 32.1354 17.25 39.3736 17.25C39.7192 17.25 39.9986 17.53 39.9986 17.875C39.9986 18.22 39.7192 18.5 39.3736 18.5C32.8242 18.5 27.4967 23.8281 27.4967 30.3768C27.4967 30.7224 27.2173 31.0018 26.8717 31.0018Z" fill="#ED1C24"/>
<path d="M29.3717 31.0018C29.0261 31.0018 28.7467 30.7224 28.7467 30.3768C28.7467 24.5168 33.5142 19.75 39.3736 19.75C39.7192 19.75 39.9986 20.03 39.9986 20.375C39.9986 20.72 39.7192 21 39.3736 21C34.2029 21 29.9967 25.2062 29.9967 30.3768C29.9967 30.7224 29.7173 31.0018 29.3717 31.0018Z" fill="#ED1C24"/>
<path d="M29.3717 31.0018C29.0261 31.0018 28.7467 30.7224 28.7467 30.3768C28.7467 30.0312 29.0261 29.7518 29.3717 29.7518C34.5417 29.7518 38.7486 25.5456 38.7486 20.375C38.7486 20.03 39.0279 19.75 39.3736 19.75C39.7192 19.75 39.9986 20.03 39.9986 20.375C39.9986 26.2343 35.2311 31.0018 29.3717 31.0018Z" fill="#ED1C24"/>
<path d="M31.2467 15.9999C27.1111 15.9999 23.7467 12.6356 23.7467 8.5C23.7467 8.155 24.0261 7.875 24.3717 7.875C24.7173 7.875 24.9967 8.155 24.9967 8.5C24.9967 11.9462 27.8005 14.75 31.2467 14.75C31.5923 14.75 31.8717 15.03 31.8717 15.375C31.8717 15.7199 31.5923 15.9999 31.2467 15.9999Z" fill="#ED1C24"/>
<path d="M31.2467 13.5C28.4898 13.5 26.2467 11.2569 26.2467 8.5C26.2467 8.155 26.5261 7.875 26.8717 7.875C27.2173 7.875 27.4967 8.155 27.4967 8.5C27.4967 10.5681 29.1786 12.25 31.2467 12.25C31.5923 12.25 31.8717 12.53 31.8717 12.875C31.8717 13.22 31.5923 13.5 31.2467 13.5Z" fill="#ED1C24"/>
<path d="M33.7467 13.5C30.9898 13.5 28.7467 11.2569 28.7467 8.5C28.7467 8.155 29.0261 7.875 29.3717 7.875C29.7173 7.875 29.9967 8.155 29.9967 8.5C29.9967 10.5681 31.6786 12.25 33.7467 12.25C34.0923 12.25 34.3717 12.53 34.3717 12.875C34.3717 13.22 34.0923 13.5 33.7467 13.5Z" fill="#ED1C24"/>
<path d="M36.2467 13.5C33.4898 13.5 31.2467 11.2569 31.2467 8.5C31.2467 8.155 31.5261 7.875 31.8717 7.875C32.2173 7.875 32.4967 8.155 32.4967 8.5C32.4967 10.5681 34.1786 12.25 36.2467 12.25C36.5923 12.25 36.8717 12.53 36.8717 12.875C36.8717 13.22 36.5923 13.5 36.2467 13.5Z" fill="#ED1C24"/>
<path d="M38.7467 13.5C35.9898 13.5 33.7467 11.2569 33.7467 8.5C33.7467 8.155 34.0261 7.875 34.3717 7.875C34.7173 7.875 34.9967 8.155 34.9967 8.5C34.9967 10.5681 36.6786 12.25 38.7467 12.25C39.0923 12.25 39.3717 12.53 39.3717 12.875C39.3717 13.22 39.0923 13.5 38.7467 13.5Z" fill="#ED1C24"/>
<path d="M39.3736 16H31.2467C30.9011 16 30.6217 15.72 30.6217 15.375C30.6217 15.03 30.9011 14.75 31.2467 14.75H39.3736C39.7192 14.75 39.9986 15.03 39.9986 15.375C39.9986 15.72 39.7192 16 39.3736 16Z" fill="#ED1C24"/>
<path d="M39.3736 13.5H31.2467C30.9011 13.5 30.6217 13.22 30.6217 12.875C30.6217 12.53 30.9011 12.25 31.2467 12.25H39.3736C39.7192 12.25 39.9986 12.53 39.9986 12.875C39.9986 13.22 39.7192 13.5 39.3736 13.5Z" fill="#ED1C24"/>
<path d="M26.8717 22.7015C26.526 22.7015 26.2467 22.4215 26.2467 22.0765V13.8047C26.2467 13.4597 26.526 13.1797 26.8717 13.1797C27.2173 13.1797 27.4967 13.4597 27.4967 13.8047V22.0759C27.4967 22.4215 27.2173 22.7015 26.8717 22.7015Z" fill="#ED1C24"/>
<path d="M29.3717 19.8154C29.0261 19.8154 28.7467 19.5354 28.7467 19.1904V15.1155C28.7467 14.7705 29.0261 14.4905 29.3717 14.4905C29.7173 14.4905 29.9967 14.7705 29.9967 15.1155V19.1904C29.9967 19.5361 29.7173 19.8154 29.3717 19.8154Z" fill="#ED1C24"/>
<path d="M39.3717 31.0011C39.2117 31.0011 39.0517 30.9399 38.9298 30.818L36.0023 27.8905C35.758 27.6461 35.758 27.2511 36.0023 27.0068C36.2467 26.7624 36.6417 26.7624 36.8861 27.0068L39.8136 29.9342C40.058 30.1786 40.058 30.5736 39.8136 30.818C39.6917 30.9399 39.5317 31.0011 39.3717 31.0011Z" fill="#ED1C24"/>
<path d="M56.1437 44.4H54.4637C55.9837 41.52 57.117 38.6533 57.8637 35.8C58.6104 32.92 58.9837 30.0533 58.9837 27.2C58.9837 21.4667 57.477 15.7333 54.4637 10H56.1437C59.397 15.6533 61.0237 21.3867 61.0237 27.2C61.0237 32.96 59.397 38.6933 56.1437 44.4Z" fill="white"/>
</svg>
